<svg width="23" height="23" viewBox="0 0 23 23" fill="none" xmlns="http://www.w3.org/2000/svg">
<path d="M10.6493 11.1285C11.0055 10.7152 11.2216 10.1779 11.2216 9.59077C11.2216 8.28987 10.1632 7.23145 8.86223 7.23145H5.14811C4.79275 7.23145 4.50464 7.51956 4.50464 7.87492V15.0461C4.50464 15.4014 4.79275 15.6895 5.14811 15.6895H9.1952C10.581 15.6895 11.7084 14.5621 11.7084 13.1764C11.7084 12.3322 11.2896 11.5845 10.6493 11.1285ZM5.79158 8.51839H8.86223C9.45352 8.51839 9.93466 8.99948 9.93466 9.59082C9.93466 10.1821 9.4536 10.6632 8.86223 10.6632H5.79158V8.51839ZM9.1952 14.4026H5.79158V11.9502H8.86223H9.1952C9.87136 11.9502 10.4215 12.5003 10.4215 13.1764C10.4215 13.8526 9.87136 14.4026 9.1952 14.4026Z" fill="black"/>
<path d="M18.9774 12.6452C18.9774 11.7864 18.7237 10.995 18.2631 10.4166C17.7497 9.77206 17.0029 9.41699 16.1603 9.41699C15.3177 9.41699 14.571 9.77201 14.0576 10.4166C13.5969 10.995 13.3433 11.7865 13.3433 12.6452C13.3433 13.4696 13.6514 14.275 14.2109 14.9129C14.7638 15.5433 15.4744 15.9049 16.1604 15.9049C17.2504 15.9049 17.7872 15.5327 18.3 14.932C18.5307 14.6617 18.4987 14.2556 18.2285 14.0249C17.9581 13.7941 17.552 13.8262 17.3213 14.0964C17.0048 14.4671 16.8112 14.618 16.1604 14.618C15.6801 14.618 14.9926 14.0784 14.7341 13.2887H18.334C18.6893 13.2886 18.9774 13.0006 18.9774 12.6452ZM14.7038 12.0017C14.8734 11.289 15.3416 10.7039 16.1603 10.7039C16.979 10.7039 17.4472 11.2889 17.6168 12.0017H14.7038Z" fill="black"/>
<path d="M17.8121 7.23145H14.509C14.1536 7.23145 13.8655 7.51956 13.8655 7.87492C13.8655 8.23028 14.1536 8.51839 14.509 8.51839H17.8121C18.1674 8.51839 18.4556 8.23028 18.4556 7.87492C18.4556 7.51956 18.1674 7.23145 17.8121 7.23145Z" fill="black"/>
<path d="M19.2733 0.249512H3.78594C2.04718 0.249512 0.632568 1.66413 0.632568 3.40289V18.8902C0.632568 20.629 2.04718 22.0436 3.78594 22.0436H19.2733C21.0121 22.0436 22.4267 20.629 22.4267 18.8902V3.40289C22.4267 1.66413 21.0121 0.249512 19.2733 0.249512ZM19.2733 20.7566H3.78594C2.75685 20.7566 1.91961 19.9193 1.91961 18.8902V3.40289C1.91961 2.3738 2.75685 1.53655 3.78594 1.53655H19.2733C20.3024 1.53655 21.1396 2.3738 21.1396 3.40289V18.8902C21.1396 19.9193 20.3024 20.7566 19.2733 20.7566Z" fill="black"/>
</svg>
