<svg width="30" height="30" viewBox="0 0 30 30" fill="none" xmlns="http://www.w3.org/2000/svg">
<path d="M22.714 4.24951H7.22662C5.48786 4.24951 4.07324 5.66413 4.07324 7.40289V22.8902C4.07324 24.629 5.48786 26.0436 7.22662 26.0436H22.714C24.4528 26.0436 25.8673 24.629 25.8673 22.8902V7.40289C25.8673 5.66413 24.4528 4.24951 22.714 4.24951ZM22.714 24.7566H7.22662C6.19753 24.7566 5.36029 23.9193 5.36029 22.8902V7.40289C5.36029 6.3738 6.19753 5.53655 7.22662 5.53655H22.714C23.7431 5.53655 24.5803 6.3738 24.5803 7.40289V22.8902C24.5803 23.9193 23.7431 24.7566 22.714 24.7566Z" fill="black"/>
<path d="M11.7927 13.3296H9.97656V20.5938H11.7927V13.3296Z" fill="black"/>
<path d="M10.884 12.4228C11.6362 12.4228 12.246 11.813 12.246 11.0608C12.246 10.3085 11.6362 9.69873 10.884 9.69873C10.1318 9.69873 9.52197 10.3085 9.52197 11.0608C9.52197 11.813 10.1318 12.4228 10.884 12.4228Z" fill="black"/>
<path d="M17.2414 13.3311C16.5764 13.3311 15.9608 13.5231 15.4253 13.8347V13.4065H13.6091V20.5953H15.4253V16.963C15.4253 15.96 16.2384 15.1472 17.2414 15.1472C18.2444 15.1472 19.0572 15.96 19.0572 16.963V20.5953H20.8734V16.963C20.8734 14.9573 19.2471 13.3311 17.2414 13.3311Z" fill="black"/>
</svg>
