<svg width="23" height="23" viewBox="0 0 23 23" fill="none" xmlns="http://www.w3.org/2000/svg">
<path d="M9.21927 20.447V22.6544L8.68552 22.2232C8.60305 22.1565 6.64083 20.5634 4.65101 18.279C1.90613 15.1276 0.514404 12.2987 0.514404 9.87125V9.63065C0.514404 4.83077 4.41939 0.925781 9.21927 0.925781C14.0192 0.925781 17.9241 4.83077 17.9241 9.63065V9.87125C17.9241 10.0751 17.9133 10.2821 17.8937 10.4916L16.1914 8.93861C15.8427 5.39893 12.8491 2.62429 9.21927 2.62429C5.35602 2.62429 2.21291 5.7674 2.21291 9.63065V9.87125C2.21291 13.9733 7.49815 18.9391 9.21927 20.447ZM14.4422 19.2271H16.9898V16.6794H14.4422V19.2271ZM9.21927 6.0213C11.2094 6.0213 12.8286 7.64049 12.8286 9.63065C12.8286 11.6208 11.2094 13.24 9.21927 13.24C7.22912 13.24 5.60992 11.6208 5.60992 9.63065C5.60992 7.64049 7.22912 6.0213 9.21927 6.0213ZM9.21927 7.71981C8.16558 7.71981 7.30843 8.57696 7.30843 9.63065C7.30843 10.6842 8.16558 11.5415 9.21927 11.5415C10.2728 11.5415 11.1301 10.6842 11.1301 9.63065C11.1301 8.57696 10.2728 7.71981 9.21927 7.71981ZM21.1639 18.073L20.6863 17.6373V20.3641C20.6863 21.6338 19.6532 22.6667 18.3836 22.6667H13.006C11.7364 22.6667 10.7033 21.6338 10.7033 20.3641V17.6373L10.2257 18.073L9.0811 16.8182L15.6947 10.7846L22.3085 16.8182L21.1639 18.073ZM18.9878 16.0878L15.6947 13.0837L12.4018 16.0878V20.3639C12.4018 20.6971 12.6728 20.9682 13.006 20.9682H18.3836C18.7168 20.9682 18.9878 20.6971 18.9878 20.3639V16.0878Z" fill="black"/>
</svg>
