<svg width="22" height="16" viewBox="0 0 22 16" fill="none" xmlns="http://www.w3.org/2000/svg">
<path d="M19.9518 0.559082H1.98874C0.934705 0.559082 0.0732422 1.41676 0.0732422 2.47458V13.9676C0.0732422 15.0258 0.935258 15.8831 1.98874 15.8831H19.9518C21.0059 15.8831 21.8673 15.0254 21.8673 13.9676V2.47458C21.8673 1.4165 21.0054 0.559082 19.9518 0.559082ZM19.6577 1.83608C19.0384 2.45742 11.7639 9.75559 11.4651 10.0554C11.2155 10.3058 10.7252 10.306 10.4755 10.0554L2.28287 1.83608H19.6577ZM1.35024 13.7328V2.70933L6.8441 8.22107L1.35024 13.7328ZM2.28287 14.6061L7.74561 9.12552L9.57108 10.9569C10.3191 11.7074 11.6217 11.7071 12.3695 10.9569L14.195 9.12556L19.6577 14.6061H2.28287ZM20.5903 13.7328L15.0965 8.22107L20.5903 2.70933V13.7328Z" fill="black"/>
</svg>
