<svg width="30" height="30" viewBox="0 0 30 30" fill="none" xmlns="http://www.w3.org/2000/svg">
<path d="M24.7256 19.6132C24.6871 19.5812 20.3363 16.4676 19.1558 16.6717C18.5884 16.7719 18.2637 17.1584 17.6135 17.9336C17.5089 18.0585 17.2568 18.3571 17.0621 18.57C16.6511 18.4361 16.2503 18.2729 15.8627 18.0818C13.8616 17.1076 12.2449 15.4908 11.2707 13.4898C11.0795 13.1021 10.9164 12.7013 10.7825 12.2904C10.9961 12.0949 11.2954 11.8428 11.4232 11.7353C12.194 11.0888 12.5805 10.764 12.6807 10.1959C12.8863 9.01979 9.77124 4.66533 9.73927 4.6261C9.59741 4.42491 9.41265 4.25772 9.19832 4.13661C8.984 4.01551 8.74545 3.9435 8.49992 3.92578C7.23731 3.92578 3.63257 8.60134 3.63257 9.38956C3.63257 9.43533 3.69868 14.0876 9.43561 19.9234C15.2648 25.6538 19.9171 25.7199 19.9629 25.7199C20.7511 25.7199 25.4267 22.1151 25.4267 20.8525C25.409 20.6069 25.3369 20.3683 25.2156 20.1539C25.0944 19.9396 24.927 19.7549 24.7256 19.6132ZM19.883 24.2626C19.248 24.2103 15.344 23.6952 10.4628 18.8998C5.64271 13.9925 5.14072 10.0775 5.09059 9.47092C6.04283 7.97632 7.19285 6.61737 8.50936 5.43103C8.53842 5.46009 8.57692 5.50367 8.62632 5.56034C9.63599 6.93862 10.5058 8.41411 11.2227 9.96492C10.9896 10.1995 10.7431 10.4205 10.4846 10.6267C10.0838 10.9322 9.71565 11.2784 9.38621 11.6598L9.20968 11.9068L9.26198 12.2054C9.41572 12.8713 9.65119 13.5158 9.96303 14.124C11.0803 16.4182 12.9341 18.2718 15.2285 19.3887C15.8366 19.701 16.481 19.9367 17.1471 20.0905L17.4457 20.1428L17.6927 19.9662C18.0755 19.6353 18.4231 19.2658 18.7301 18.8635C18.9574 18.5918 19.2618 18.2292 19.3766 18.1268C20.9318 18.8431 22.4111 19.7139 23.7921 20.7261C23.8524 20.777 23.8945 20.8162 23.9229 20.8416C22.7367 22.1585 21.3777 23.3088 19.883 24.2611V24.2626Z" fill="black"/>
</svg>
