<svg width="23" height="17" viewBox="0 0 23 17" fill="none" xmlns="http://www.w3.org/2000/svg">
<path d="M14.7661 7.34457L9.95163 4.71032C9.67481 4.55886 9.34761 4.56451 9.07627 4.72529C8.80476 4.88623 8.64282 5.17053 8.64282 5.4861V10.7094C8.64282 11.0234 8.80376 11.3073 9.07344 11.4684C9.21426 11.5525 9.37038 11.5947 9.52684 11.5947C9.67015 11.5947 9.8138 11.5593 9.94598 11.4881L14.7606 8.89929C15.0464 8.74549 15.2248 8.44838 15.2261 8.12367C15.2273 7.79897 15.051 7.50053 14.7661 7.34457V7.34457ZM9.91988 10.0523V6.14849L13.5181 8.11736L9.91988 10.0523Z" fill="black"/>
<path d="M22.1483 3.96189L22.1473 3.95192C22.1288 3.7765 21.9451 2.21618 21.1866 1.42255C20.3098 0.489086 19.3158 0.375687 18.8378 0.321315C18.7982 0.316826 18.7619 0.312669 18.7295 0.308346L18.6914 0.304355C15.8102 0.0948497 11.459 0.0662505 11.4154 0.0660842L11.4116 0.065918L11.4078 0.0660842C11.3642 0.0662505 7.01299 0.0948497 4.10584 0.304355L4.06743 0.308346C4.03651 0.312503 4.00242 0.316327 3.96534 0.32065C3.49279 0.375188 2.50944 0.488754 1.63018 1.45597C0.907721 2.24112 0.698881 3.76802 0.677431 3.93961L0.674937 3.96189C0.668452 4.03489 0.514648 5.77262 0.514648 7.51717V9.14799C0.514648 10.8925 0.668452 12.6303 0.674937 12.7034L0.676101 12.7144C0.694557 12.887 0.878124 14.4187 1.63318 15.2127C2.45757 16.1149 3.49994 16.2343 4.06062 16.2985C4.14924 16.3086 4.22556 16.3172 4.27761 16.3264L4.32799 16.3334C5.99156 16.4917 11.2074 16.5697 11.4286 16.5728L11.4352 16.573L11.4419 16.5728C11.4854 16.5726 15.8365 16.544 18.7177 16.3345L18.7558 16.3306C18.7922 16.3257 18.8331 16.3214 18.878 16.3167C19.3479 16.2669 20.3259 16.1633 21.193 15.2092C21.9155 14.4239 22.1245 12.897 22.1458 12.7256L22.1483 12.7033C22.1548 12.6301 22.3087 10.8925 22.3087 9.14799V7.51717C22.3086 5.77262 22.1548 4.03505 22.1483 3.96189V3.96189ZM21.0314 9.14799C21.0314 10.7627 20.8904 12.4256 20.8771 12.5782C20.8229 12.9987 20.6026 13.9648 20.2506 14.3474C19.7079 14.9445 19.1504 15.0037 18.7433 15.0467C18.6941 15.0519 18.6485 15.0569 18.6073 15.062C15.8205 15.2636 11.6336 15.2945 11.4407 15.2957C11.2244 15.2925 6.08484 15.2139 4.47198 15.064C4.38934 15.0506 4.30005 15.0403 4.20594 15.0296C3.72857 14.9749 3.07511 14.9001 2.57263 14.3474L2.56082 14.3348C2.21497 13.9744 2.00098 13.0711 1.9466 12.5832C1.93646 12.4678 1.7918 10.7853 1.7918 9.14799V7.51717C1.7918 5.90431 1.93247 4.24323 1.94611 4.08743C2.01079 3.5921 2.23526 2.68457 2.57263 2.31777C3.13197 1.70256 3.72175 1.63438 4.11183 1.58932C4.14908 1.585 4.18383 1.58101 4.21592 1.57685C7.04325 1.37433 11.2603 1.34424 11.4116 1.34307C11.5629 1.34407 15.7785 1.37433 18.5807 1.57685C18.6151 1.58118 18.6527 1.5855 18.6931 1.59016C19.0943 1.63588 19.7007 1.70505 20.2572 2.29865L20.2624 2.30414C20.6083 2.66445 20.8222 3.58362 20.8766 4.08128C20.8863 4.19019 21.0314 5.87638 21.0314 7.51717V9.14799Z" fill="black"/>
</svg>
